[img]http://img132.imageshack.us/img132/1273/ibrg.jpg[/img]


[img]http://stpicz.com/5929_vlcsnap2013012018h08m46s125_w2ze.jpg[/img]
[img]http://stpicz.com/5003_vlcsnap2013012018h09m01s21_0m2z.jpg[/img]
[img]http://stpicz.com/5403_vlcsnap2013012018h09m28s30_bq73.jpg[/img]
[img]http://stpicz.com/6545_vlcsnap2013012018h09m46s208_31n0.jpg[/img]


[code]General
Complete name                    : Nachhatar Gill - Peerhan Teriyan_HD_720p Branded Heeran -.MP4
Format                           : MPEG-4
Format profile                   : Base Media / Version 2
Codec ID                         : mp42
File size                        : 90.1 MiB
Duration                         : 4mn 34s
Overall bit rate                 : 2 753 Kbps
Encoded date                     : UTC 2012-12-25 21:32:33
Tagged date                      : UTC 2012-12-25 21:32:33
gsst                             : 0
gstd                             : 274551
gssd                             : B73FE6104HH1358272608386855
gshh                             :

Video
ID                               : 1
Format                           : AVC
Format/Info                      : Advanced Video Codec
Format profile                   : High@L3.1
Format settings, CABAC           : Yes
Format settings, ReFrames        : 1 frame
Codec ID                         : avc1
Codec ID/Info                    : Advanced Video Coding
Duration                         : 4mn 34s
Bit rate mode                    : Variable
Bit rate                         : 2 559 Kbps
Maximum bit rate                 : 6 095 Kbps
Width                            : 1 280 pixels
Height                           : 720 pixels
Display aspect ratio             : 16:9
Frame rate mode                  : Constant
Frame rate                       : 25.000 fps
Color space                      : YUV
Chroma subsampling               : 4:2:0
Bit depth                        : 8 bits
Scan type                        : Progressive
Bits/(Pixel*Frame)               : 0.111
Stream size                      : 83.7 MiB (93%)
Tagged date                      : UTC 2012-12-25 21:32:34

Audio
ID                               : 2
Format                           : AAC
Format/Info                      : Advanced Audio Codec
Format profile                   : LC
Codec ID                         : 40
Duration                         : 4mn 34s
Bit rate mode                    : Variable
Bit rate                         : 192 Kbps
Maximum bit rate                 : 202 Kbps
Channel(s)                       : 2 channels
Channel positions                : Front: L R
Sampling rate                    : 44.1 KHz
Compression mode                 : Lossy
Stream size                      : 6.28 MiB (7%)
Title                            : IsoMedia File Produced by Google, 5-11-2011
Encoded date                     : UTC 2012-12-25 21:32:33
Tagged date                      : UTC 2012-12-25 21:32:34

[/code]

